<svg width="109" height="37" viewBox="0 0 109 37" fill="none" xmlns="http://www.w3.org/2000/svg">
<path d="M46.4429 27.4976V7.79134H50.0464V24.6824H58.7734V27.4976H46.4429ZM67.9317 27.8354C66.5805 27.8354 65.3605 27.5257 64.272 26.9064C63.2022 26.287 62.3483 25.4331 61.7102 24.3446C61.0909 23.2373 60.7812 21.961 60.7812 20.5159C60.7812 19.0708 61.1003 17.804 61.7384 16.7154C62.3765 15.6081 63.2304 14.7448 64.3002 14.1255C65.3887 13.5061 66.6086 13.1965 67.9599 13.1965C69.2924 13.1965 70.4935 13.5061 71.5633 14.1255C72.6518 14.7448 73.5058 15.6081 74.1251 16.7154C74.7632 17.804 75.0823 19.0708 75.0823 20.5159C75.0823 21.961 74.7632 23.2373 74.1251 24.3446C73.5058 25.4331 72.6518 26.287 71.5633 26.9064C70.4748 27.5257 69.2643 27.8354 67.9317 27.8354ZM67.9317 24.7105C68.8701 24.7105 69.6865 24.3633 70.3809 23.6689C71.0754 22.9557 71.4226 21.9047 71.4226 20.5159C71.4226 19.1271 71.0754 18.0855 70.3809 17.3911C69.6865 16.6779 68.8795 16.3213 67.9599 16.3213C67.0027 16.3213 66.1769 16.6779 65.4825 17.3911C64.8069 18.0855 64.4691 19.1271 64.4691 20.5159C64.4691 21.9047 64.8069 22.9557 65.4825 23.6689C66.1769 24.3633 66.9933 24.7105 67.9317 24.7105ZM83.3362 23.3311C82.6606 23.3311 82.0319 23.256 81.4501 23.1059L80.4085 24.1475C80.7275 24.3164 81.1592 24.4572 81.7034 24.5698C82.2477 24.6824 83.1298 24.795 84.3497 24.9076C86.2077 25.0765 87.559 25.5176 88.4036 26.2307C89.2481 26.9439 89.6704 27.9292 89.6704 29.1867C89.6704 30.0124 89.4452 30.7913 88.9947 31.5233C88.5443 32.274 87.8499 32.8745 86.9115 33.325C85.9731 33.7942 84.772 34.0288 83.3081 34.0288C81.3187 34.0288 79.714 33.6534 78.4941 32.9027C77.2742 32.1707 76.6643 31.0634 76.6643 29.5808C76.6643 28.3233 77.2742 27.2348 78.4941 26.3152C78.1188 26.1463 77.7903 25.968 77.5088 25.7803C77.2461 25.5926 77.0115 25.3956 76.805 25.1891V24.5416L79.2542 21.9517C78.1657 20.9945 77.6214 19.7652 77.6214 18.2638C77.6214 17.3254 77.8467 16.4715 78.2971 15.702C78.7663 14.9325 79.4231 14.3225 80.2677 13.8721C81.1123 13.4217 82.1351 13.1965 83.3362 13.1965C84.1245 13.1965 84.8564 13.3091 85.5321 13.5343H90.8246V15.7301L88.4317 15.899C88.8071 16.6122 88.9947 17.4005 88.9947 18.2638C88.9947 19.2022 88.7695 20.0561 88.3191 20.8256C87.8687 21.5951 87.2118 22.205 86.3485 22.6555C85.5039 23.1059 84.4998 23.3311 83.3362 23.3311ZM83.3362 20.5722C84.0682 20.5722 84.6688 20.3752 85.138 19.981C85.6259 19.5869 85.8699 19.0239 85.8699 18.2919C85.8699 17.56 85.6259 16.997 85.138 16.6028C84.6688 16.2087 84.0682 16.0116 83.3362 16.0116C82.5668 16.0116 81.9474 16.2087 81.4782 16.6028C81.009 16.997 80.7744 17.56 80.7744 18.2919C80.7744 19.0239 81.009 19.5869 81.4782 19.981C81.9474 20.3752 82.5668 20.5722 83.3362 20.5722ZM79.958 29.2148C79.958 29.9092 80.2771 30.4253 80.9152 30.7632C81.5721 31.1197 82.3697 31.298 83.3081 31.298C84.2089 31.298 84.9409 31.1104 85.5039 30.735C86.067 30.3784 86.3485 29.8905 86.3485 29.2711C86.3485 28.7644 86.1608 28.3421 85.7854 28.0043C85.4289 27.6665 84.7063 27.46 83.6178 27.385C82.8483 27.3286 82.1351 27.2442 81.4782 27.1316C80.934 27.4319 80.5398 27.7603 80.2959 28.1169C80.0706 28.4735 79.958 28.8395 79.958 29.2148ZM99.6024 27.8354C98.2512 27.8354 97.0313 27.5257 95.9427 26.9064C94.873 26.287 94.019 25.4331 93.3809 24.3446C92.7616 23.2373 92.4519 21.961 92.4519 20.5159C92.4519 19.0708 92.771 17.804 93.4091 16.7154C94.0472 15.6081 94.9011 14.7448 95.9709 14.1255C97.0594 13.5061 98.2793 13.1965 99.6306 13.1965C100.963 13.1965 102.164 13.5061 103.234 14.1255C104.323 14.7448 105.176 15.6081 105.796 16.7154C106.434 17.804 106.753 19.0708 106.753 20.5159C106.753 21.961 106.434 23.2373 105.796 24.3446C105.176 25.4331 104.323 26.287 103.234 26.9064C102.145 27.5257 100.935 27.8354 99.6024 27.8354ZM99.6024 24.7105C100.541 24.7105 101.357 24.3633 102.052 23.6689C102.746 22.9557 103.093 21.9047 103.093 20.5159C103.093 19.1271 102.746 18.0855 102.052 17.3911C101.357 16.6779 100.55 16.3213 99.6306 16.3213C98.6734 16.3213 97.8477 16.6779 97.1532 17.3911C96.4776 18.0855 96.1398 19.1271 96.1398 20.5159C96.1398 21.9047 96.4776 22.9557 97.1532 23.6689C97.8477 24.3633 98.6641 24.7105 99.6024 24.7105Z" fill="#170F49"/>
<path d="M0 15.3077C0 6.8535 6.85345 4.57764e-05 15.3076 4.57764e-05V21.1456C15.3076 29.5998 8.45416 36.4532 0 36.4532V15.3077Z" fill="#4A3AFF"/>
<path d="M17.5285 8.31804C17.5285 3.72411 21.2526 0 25.8465 0C30.4405 0 34.1646 3.72411 34.1646 8.31803V8.79828C34.1646 13.3922 30.4405 17.1163 25.8465 17.1163C21.2526 17.1163 17.5285 13.3922 17.5285 8.79828V8.31804Z" fill="#4CBFFF"/>
<path d="M17.5285 27.6552C17.5285 23.0613 21.2526 19.3372 25.8465 19.3372C30.4405 19.3372 34.1646 23.0613 34.1646 27.6552V28.1355C34.1646 32.7294 30.4405 36.4535 25.8465 36.4535C21.2526 36.4535 17.5285 32.7294 17.5285 28.1355V27.6552Z" fill="#962DFF"/>
</svg>
